<?xml version="1.0" encoding="UTF-8" standalone="no"?>
<svg
   xmlns:dc="http://purl.org/dc/elements/1.1/"
   xmlns:cc="http://creativecommons.org/ns#"
   xmlns:rdf="http://www.w3.org/1999/02/22-rdf-syntax-ns#"
   xmlns:svg="http://www.w3.org/2000/svg"
   xmlns="http://www.w3.org/2000/svg"
   xmlns:sodipodi="http://sodipodi.sourceforge.net/DTD/sodipodi-0.dtd"
   xmlns:inkscape="http://www.inkscape.org/namespaces/inkscape"
   version="1.1"
   id="Capa_1"
   x="0px"
   y="0px"
   width="548.291px"
   height="548.291px"
   viewBox="0 0 548.291 548.291"
   style="enable-background:new 0 0 548.291 548.291;"
   xml:space="preserve"
   sodipodi:docname="log-file-red.svg"
   inkscape:version="1.0.2-2 (e86c870879, 2021-01-15)"><metadata
   id="metadata43"><rdf:RDF><cc:Work
       rdf:about=""><dc:format>image/svg+xml</dc:format><dc:type
         rdf:resource="http://purl.org/dc/dcmitype/StillImage" /><dc:title></dc:title></cc:Work></rdf:RDF></metadata><defs
   id="defs41" /><sodipodi:namedview
   pagecolor="#ffffff"
   bordercolor="#666666"
   borderopacity="1"
   objecttolerance="10"
   gridtolerance="10"
   guidetolerance="10"
   inkscape:pageopacity="0"
   inkscape:pageshadow="2"
   inkscape:window-width="1920"
   inkscape:window-height="1057"
   id="namedview39"
   showgrid="false"
   inkscape:zoom="1.6232256"
   inkscape:cx="274.14551"
   inkscape:cy="274.14551"
   inkscape:window-x="-8"
   inkscape:window-y="-8"
   inkscape:window-maximized="1"
   inkscape:current-layer="layer1" />
<g
   id="g6">
	<path
   d="M486.201,196.124h-13.166V132.59c0-0.396-0.062-0.795-0.115-1.196c-0.021-2.523-0.825-5-2.552-6.963L364.657,3.677   c-0.033-0.031-0.064-0.042-0.085-0.073c-0.63-0.707-1.364-1.292-2.143-1.795c-0.229-0.157-0.461-0.286-0.702-0.421   c-0.672-0.366-1.387-0.671-2.121-0.892c-0.2-0.055-0.379-0.136-0.577-0.188C358.23,0.118,357.401,0,356.562,0H96.757   C84.894,0,75.256,9.651,75.256,21.502v174.613H62.092c-16.971,0-30.732,13.756-30.732,30.733v159.812   c0,16.968,13.761,30.731,30.732,30.731h13.164V526.79c0,11.854,9.638,21.501,21.501,21.501h354.776   c11.853,0,21.501-9.647,21.501-21.501V417.392h13.166c16.966,0,30.729-13.764,30.729-30.731V226.854   C516.93,209.872,503.167,196.124,486.201,196.124z M96.757,21.502h249.054v110.009c0,5.939,4.817,10.75,10.751,10.75h94.972v53.861   H96.757V21.502z M317.816,303.427c0,47.77-28.973,76.746-71.558,76.746c-43.234,0-68.531-32.641-68.531-74.152   c0-43.679,27.887-76.319,70.906-76.319C293.389,229.702,317.816,263.213,317.816,303.427z M82.153,377.79V232.085h33.073v118.039   h57.944v27.66H82.153V377.79z M451.534,520.962H96.757v-103.57h354.776V520.962z M461.176,371.092   c-10.162,3.454-29.402,8.209-48.641,8.209c-26.589,0-45.833-6.698-59.24-19.664c-13.396-12.535-20.75-31.568-20.529-52.967   c0.214-48.436,35.448-76.108,83.229-76.108c18.814,0,33.292,3.688,40.431,7.139l-6.92,26.37   c-7.999-3.457-17.942-6.268-33.942-6.268c-27.449,0-48.209,15.567-48.209,47.134c0,30.049,18.807,47.771,45.831,47.771   c7.564,0,13.623-0.852,16.21-2.152v-30.488h-22.478v-25.723h54.258V371.092L461.176,371.092z"
   id="path2" />
	<path
   d="M212.533,305.37c0,28.535,13.407,48.64,35.452,48.64c22.268,0,35.021-21.186,35.021-49.5   c0-26.153-12.539-48.655-35.237-48.655C225.504,255.854,212.533,277.047,212.533,305.37z"
   id="path4" />
</g>
<g
   id="g8">
</g>
<g
   id="g10">
</g>
<g
   id="g12">
</g>
<g
   id="g14">
</g>
<g
   id="g16">
</g>
<g
   id="g18">
</g>
<g
   id="g20">
</g>
<g
   id="g22">
</g>
<g
   id="g24">
</g>
<g
   id="g26">
</g>
<g
   id="g28">
</g>
<g
   id="g30">
</g>
<g
   id="g32">
</g>
<g
   id="g34">
</g>
<g
   id="g36">
</g>
<g
   inkscape:groupmode="layer"
   id="layer1"
   inkscape:label="Color1"><path
     style="fill:#00ff00;stroke-width:0.616057"
     d="M 97.337057,108.73412 V 21.562006 H 221.47261 345.60816 l 0.0102,56.523259 0.0101,56.523255 1.38855,2.45168 c 0.77855,1.37463 2.46559,3.06167 3.84022,3.84022 l 2.45167,1.38855 48.82255,0.0102 48.82254,0.0101 v 26.79849 26.7985 H 274.14551 97.337057 Z"
     id="path46" /><path
     style="fill:#00ff00;stroke-width:0.616057"
     d="M 97.337057,469.12765 V 417.68686 H 274.14551 450.95396 v 51.44079 51.44079 H 274.14551 97.337057 Z"
     id="path48" /><path
     style="fill:#00ff00;stroke-width:0.616057"
     d="M 82.551681,304.94837 V 232.25361 H 98.8772 115.20272 v 59.1415 59.14151 h 28.95469 28.9547 v 13.55326 13.55326 H 127.83189 82.551681 Z"
     id="path50" /><path
     style="fill:#00ff00;stroke-width:0.616057"
     d="m 238.19397,379.43265 c -26.6812,-2.81562 -47.05237,-19.42344 -55.84663,-45.52958 -3.53314,-10.48827 -5.09317,-26.45174 -3.72833,-38.15132 3.16255,-27.10987 16.65856,-47.85341 37.92514,-58.29144 24.41322,-11.98246 55.27815,-9.21312 75.21338,6.74848 12.99304,10.40318 21.52218,26.00631 24.60477,45.01175 1.16547,7.18563 1.15328,21.74094 -0.0248,29.58912 -1.80094,11.99776 -6.08509,23.5542 -12.01806,32.41855 -3.91665,5.85179 -13.63388,15.11098 -19.42328,18.50774 -9.36071,5.4921 -19.01624,8.52319 -30.99181,9.72902 -7.07461,0.71235 -8.68519,0.70904 -15.71039,-0.0323 z m 17.65876,-26.11864 c 5.62198,-1.46434 9.67321,-3.86853 14.10329,-8.36955 16.55215,-16.8172 17.96162,-56.32262 2.74029,-76.80624 -5.70471,-7.67693 -13.35382,-11.78069 -22.96209,-12.3192 -10.84274,-0.60769 -19.62847,3.1996 -26.30233,11.39811 -3.25069,3.99332 -7.39825,12.86792 -9.14027,19.55755 -1.30378,5.00674 -1.44102,6.8292 -1.41499,18.78975 0.0251,11.55013 0.19522,13.83655 1.32908,17.86566 4.81602,17.11364 12.78867,26.39958 25.63883,29.86219 4.25052,1.14534 11.65575,1.15539 16.00819,0.0217 z"
     id="path52" /><path
     style="fill:#ff0000;stroke-width:0.616057"
     d="m 399.8212,378.49945 c -1.18591,-0.14175 -4.69517,-0.67127 -7.79837,-1.17672 -29.91526,-4.87254 -49.61599,-22.48615 -56.75617,-50.74332 -1.51643,-6.00127 -1.65277,-7.54848 -1.66179,-18.85878 -0.006,-7.9822 0.28812,-13.83978 0.83624,-16.63355 6.63178,-33.80223 31.38483,-55.03059 69.39476,-59.51335 8.47467,-0.99947 25.82568,-0.37871 34.51896,1.23497 6.6781,1.23962 16.11146,3.96832 17.10892,4.94893 0.3801,0.37367 -4.4634,20.53262 -6.02418,25.07309 -0.16105,0.46851 -1.90618,0.10873 -5.30279,-1.09324 -8.35679,-2.95723 -14.87652,-3.8611 -27.68203,-3.83775 -9.70921,0.0177 -12.12694,0.21808 -16.32552,1.35305 -12.81876,3.46518 -22.96098,11.35594 -27.89675,21.70397 -3.89581,8.16772 -4.71198,12.25029 -4.7347,23.6836 -0.0238,11.96611 0.98022,16.95788 5.05699,25.14271 3.92456,7.87924 10.57484,14.58623 18.02557,18.17928 8.15663,3.93346 12.163,4.70922 24.02624,4.65227 7.0214,-0.0337 10.92701,-0.31577 12.62917,-0.91208 l 2.46423,-0.86326 v -15.39874 -15.39875 l -11.24304,-0.16791 -11.24305,-0.16792 V 307.09068 294.4754 h 26.79849 26.7985 v 38.17575 38.17575 l -5.08248,1.53015 c -13.97451,4.20722 -25.63125,5.96622 -41.12182,6.20525 -6.94605,0.10719 -13.59947,0.0789 -14.78538,-0.0628 z"
     id="path54" /><path
     style="fill:#ff0000;stroke-width:0.616057"
     d="M 97.337057,108.73412 V 21.562006 H 221.47261 345.60816 v 57.081166 57.081168 l 1.6115,2.11279 c 0.88633,1.16203 2.48037,2.64259 3.54233,3.29014 1.8582,1.13308 3.77888,1.17745 51.0614,1.17967 l 49.13057,0.002 v 26.79849 26.7985 H 274.14551 97.337057 Z"
     id="path56" /><path
     style="fill:#ff0000;stroke-width:0.616057"
     d="m 235.64193,378.80841 c -5.12751,-0.73889 -13.67707,-3.25437 -18.51222,-5.44674 -18.46187,-8.37101 -31.8486,-26.0048 -36.73644,-48.39143 -1.72546,-7.90271 -2.19179,-25.06987 -0.8955,-32.96639 5.98961,-36.48665 30.80999,-59.57015 66.00107,-61.38245 22.08042,-1.13711 42.8023,7.59762 55.44744,23.37232 5.58554,6.96792 10.86097,17.73221 13.3482,27.23645 1.78646,6.8264 1.95578,8.35026 2.21049,19.89368 0.31328,14.19715 -0.48008,20.87468 -3.67488,30.93105 -6.15476,19.37344 -19.23943,34.25917 -36.44505,41.46159 -12.21782,5.11448 -27.86821,7.14723 -40.74311,5.29192 z m 21.79308,-25.7361 c 5.42013,-1.68693 8.57508,-3.75474 13.18541,-8.64193 4.89444,-5.18837 8.33193,-11.83421 10.7437,-20.77124 1.51333,-5.60781 1.64343,-7.04147 1.66993,-18.40274 0.0256,-10.96377 -0.12834,-12.91835 -1.39712,-17.74212 -4.59648,-17.47534 -12.92517,-27.74265 -25.07059,-30.90613 -4.11165,-1.07095 -12.816,-1.22127 -16.85118,-0.29101 -12.50259,2.88231 -22.65024,15.58261 -26.20627,32.79849 -1.33902,6.4826 -1.33902,25.79894 0,32.28154 3.40989,16.50834 12.94664,28.44845 25.52135,31.953 4.40512,1.22769 14.03452,1.08232 18.40477,-0.27786 z"
     id="path58" /><path
     style="fill:#ff0000;stroke-width:0.616057"
     d="M 82.551681,304.94837 V 232.25361 H 98.8772 115.20272 v 59.1415 59.14151 h 28.95469 28.9547 v 13.55326 13.55326 H 127.83189 82.551681 Z"
     id="path60" /><path
     style="fill:#ff0000;stroke-width:0.616057"
     d="M 97.337057,469.12765 V 417.68686 H 274.14551 450.95396 v 51.44079 51.44079 H 274.14551 97.337057 Z"
     id="path62" /></g></svg>
