<?xml version="1.0" encoding="UTF-8" standalone="no"?>
<svg
   xmlns:dc="http://purl.org/dc/elements/1.1/"
   xmlns:cc="http://creativecommons.org/ns#"
   xmlns:rdf="http://www.w3.org/1999/02/22-rdf-syntax-ns#"
   xmlns:svg="http://www.w3.org/2000/svg"
   xmlns="http://www.w3.org/2000/svg"
   xmlns:sodipodi="http://sodipodi.sourceforge.net/DTD/sodipodi-0.dtd"
   xmlns:inkscape="http://www.inkscape.org/namespaces/inkscape"
   height="477pt"
   viewBox="-32 0 477 477.97504"
   width="477pt"
   version="1.1"
   id="svg96"
   sodipodi:docname="profits-green.svg"
   inkscape:version="1.0.2-2 (e86c870879, 2021-01-15)">
  <metadata
     id="metadata102">
    <rdf:RDF>
      <cc:Work
         rdf:about="">
        <dc:format>image/svg+xml</dc:format>
        <dc:type
           rdf:resource="http://purl.org/dc/dcmitype/StillImage" />
        <dc:title></dc:title>
      </cc:Work>
    </rdf:RDF>
  </metadata>
  <defs
     id="defs100" />
  <sodipodi:namedview
     pagecolor="#ffffff"
     bordercolor="#666666"
     borderopacity="1"
     objecttolerance="10"
     gridtolerance="10"
     guidetolerance="10"
     inkscape:pageopacity="0"
     inkscape:pageshadow="2"
     inkscape:window-width="1920"
     inkscape:window-height="1057"
     id="namedview98"
     showgrid="false"
     inkscape:zoom="0.98950477"
     inkscape:cx="20.92224"
     inkscape:cy="318"
     inkscape:window-x="-8"
     inkscape:window-y="-8"
     inkscape:window-maximized="1"
     inkscape:current-layer="svg96" />
  <g
     inkscape:groupmode="layer"
     id="layer3"
     inkscape:label="Layer 2">
    <rect
       style="fill:#00ff00;stroke-width:0.751533"
       id="rect929"
       width="477.72818"
       height="477.72818"
       x="-32.487507"
       y="-3.8038658e-07" />
    <path
       style="fill:#00ff00;stroke-width:1.17562"
       d="m 220.45815,289.39887 c -4.68243,-2.73789 -7.34271,-6.29913 -8.94108,-11.96916 -3.3463,-11.87058 9.33203,-24.49591 22.2628,-22.16974 5.96731,1.07348 13.49545,7.78378 15.08571,13.44685 2.23835,7.97112 -2.08196,17.42593 -9.68552,21.19632 -4.86774,2.4138 -14.15939,2.16353 -18.72191,-0.50427 z"
       id="path931" />
    <path
       style="fill:#00ff00;stroke-width:1.17562"
       d="m 316.54219,380.35892 c -7.27832,-3.1696 -10.68605,-8.40878 -10.68605,-16.42917 0,-4.82751 0.65621,-7.38428 2.51145,-9.78529 8.99553,-11.64169 24.12329,-11.26844 32.68255,0.8064 3.65786,5.16024 3.23673,13.8663 -0.94299,19.49501 -3.01235,4.05664 -10.77815,8.05605 -15.64272,8.05605 -1.65073,0 -5.21574,-0.96434 -7.92224,-2.143 z"
       id="path933" />
  </g>
  <path
     d="m 346.54027,187.06547 11.36732,-0.60986 19.25221,36.54942 38.09692,18.4612 -2.35869,41.0611 23.56823,34.26988 -23.56823,34.28766 2.35869,41.04331 -38.09692,18.46123 -19.25221,36.54347 -42.82044,-2.25584 -35.73825,22.59989 -35.75676,-22.59989 -42.82042,2.25584 -19.2337,-36.54347 -38.11549,-18.46123 2.35868,-41.04331 -23.56828,-34.28766 23.56828,-34.26988 -2.35868,-41.0611 26.92105,-13.04954 11.19444,-5.41166 19.2337,-36.54941 27.91508,1.48612 14.90534,0.78749 35.75676,-22.59396 8.86665,5.60703 26.8716,16.98693 z m 7.43413,176.80843 c -0.006,-15.59554 -13.20116,-28.24247 -29.4649,-28.23655 -16.26991,0.006 -29.45257,12.65287 -29.45257,28.2543 0.006,15.60144 13.20118,28.24246 29.46491,28.23653 16.26992,0 29.45874,-12.65285 29.45256,-28.25428 z m -94.27287,-90.39955 c 0,-15.60145 -13.195,-28.24838 -29.46491,-28.24838 -16.26992,0 -29.4649,12.64693 -29.4649,28.24838 0,15.60736 13.19498,28.2543 29.4649,28.2543 16.26991,0 29.46491,-12.64694 29.46491,-28.2543 z m 0,0"
     fill="#00efd1"
     id="path64"
     style="stroke-width:1.54787;fill:#ffffff" />
  <path
     d="m 324.52184,335.63735 c 16.26992,0.006 29.45256,12.65287 29.45256,28.2543 -0.006,15.60144 -13.20116,28.24246 -29.4649,28.23653 -16.26991,-0.006 -29.45257,-12.65285 -29.45257,-28.25428 0,-15.60144 13.195,-28.24838 29.46491,-28.23655 z m 0,0"
     fill="#fedb41"
     id="path68"
     style="stroke-width:1.54787" />
  <path
     d="m 259.70153,273.47435 c 0,15.60736 -13.195,28.2543 -29.46491,28.2543 -16.26992,0 -29.4649,-12.64694 -29.4649,-28.2543 0,-15.60145 13.19498,-28.24838 29.4649,-28.24838 16.26991,0 29.46491,12.64693 29.46491,28.24838 z m 0,0"
     fill="#fedb41"
     id="path70"
     style="stroke-width:1.54787" />
  <path
     d="m 180.53439,114.6544 38.625,38.62891 c 2.34375,2.34375 6.14453,2.34375 8.48828,0 l 116.04297,-116.042966 -0.0859,50.609375 c 0,1.574219 0.63672,3.085937 1.76562,4.1875 1.125,1.101563 2.64844,1.703125 4.22266,1.671875 h 0.0117 c 1.57422,0.03516 3.09375,-0.566406 4.22266,-1.664062 1.1289,-1.097657 1.76953,-2.601563 1.77734,-4.175782 l 0.10937,-65.199218 c 0,-1.585938 -0.63281,-3.101563 -1.75781,-4.214844 -1.1289,-1.125 -2.66015,-1.750001 -4.2539,-1.746094 l -65.27735,0.121094 c -3.3164,0.0039 -6,2.695312 -5.99609,6.011718 0.008,3.316407 2.69922,6 6.01562,5.996094 l 50.75782,-0.08594 -111.79688,111.80078 -38.6289,-38.6289 c -2.34375,-2.343755 -6.14063,-2.343755 -8.48438,0 L -6.867957,285.088 c -2.3437502,2.33984 -2.3437502,6.14062 0,8.48437 2.34375,2.34375 6.14062495,2.34375 8.484375,0 z m 0,0"
     id="path84"
     style="fill:#083863" />
  <path
     d="m 230.23662,310.82308 c 21.5121,0 38.949,-16.72048 38.949,-37.34873 0,-20.62232 -17.4369,-37.3428 -38.949,-37.3428 -21.51209,0 -38.94899,16.72048 -38.94899,37.3428 0.0246,20.62232 17.44924,37.32504 38.94899,37.34873 z m 0,-56.50269 c 11.0339,0 19.98081,8.5734 19.98081,19.15396 0,10.58649 -8.94691,19.15987 -19.98081,19.15987 -11.03392,0 -19.98082,-8.57338 -19.98082,-19.15987 0.0126,-10.57463 8.95309,-19.14211 19.98082,-19.15396 z m 0,0"
     id="path88"
     style="fill:#083863;stroke-width:1.54787" />
  <path
     d="m 324.52184,326.54293 c -21.50592,-0.006 -38.94282,16.71456 -38.949,37.33687 0,20.62233 17.4369,37.34281 38.94282,37.34281 21.51211,0 38.94284,-16.72048 38.94284,-37.34871 -0.0308,-20.60456 -17.44309,-37.30137 -38.93666,-37.33097 z m 0,56.49083 c -11.02772,0.006 -19.97463,-8.56746 -19.98081,-19.14211 0,-10.58055 8.93456,-19.15394 19.96847,-19.15987 11.02772,-0.006 19.97463,8.56747 19.98081,19.14212 -0.0126,10.57464 -8.94073,19.1421 -19.96847,19.15986 z m 0,0"
     id="path90"
     style="fill:#083863;stroke-width:1.54787" />
  <path
     d="m 353.21493,245.94831 c -3.70472,-3.55251 -9.70636,-3.55251 -13.41109,0 l -134.33947,128.8377 c -2.43279,2.29138 -3.38983,5.65442 -2.51922,8.81022 0.87678,3.16175 3.44538,5.62482 6.74259,6.45965 3.29103,0.84078 6.79817,-0.0829 9.18772,-2.40977 l 134.34566,-128.8377 c 3.69853,-3.55251 3.69853,-9.3135 -0.006,-12.8601 z m 0,0"
     id="path92"
     style="fill:#083863;stroke-width:1.54787" />
  <g
     inkscape:groupmode="layer"
     id="layer2"
     inkscape:label="Layer 1"
     style="display:inline">
    <path
       style="fill:#ffffff;stroke-width:1.17562"
       d="m 220.45815,289.39887 c -4.68243,-2.73789 -7.34271,-6.29913 -8.94108,-11.96916 -3.3463,-11.87058 9.33203,-24.49591 22.2628,-22.16974 5.96731,1.07348 13.49545,7.78378 15.08571,13.44685 2.23835,7.97112 -2.08196,17.42593 -9.68552,21.19632 -4.86774,2.4138 -14.15939,2.16353 -18.72191,-0.50427 z"
       id="path941" />
    <path
       style="fill:#ffffff;stroke-width:1.17562"
       d="m 316.54219,380.35892 c -7.27832,-3.1696 -10.68605,-8.40878 -10.68605,-16.42917 0,-4.82751 0.65621,-7.38428 2.51145,-9.78529 8.99553,-11.64169 24.12329,-11.26844 32.68255,0.8064 3.65786,5.16024 3.23673,13.8663 -0.94299,19.49501 -3.01235,4.05664 -10.77815,8.05605 -15.64272,8.05605 -1.65073,0 -5.21574,-0.96434 -7.92224,-2.143 z"
       id="path943" />
  </g>
</svg>
