<svg xmlns="http://www.w3.org/2000/svg" xmlns:xlink="http://www.w3.org/1999/xlink" viewBox="0 0 64 64"><defs><style>.cls-1{fill:#7f8b8c;}.cls-2{fill:url(#linear-gradient);}.cls-3{fill:url(#linear-gradient-2);}.cls-4{fill:url(#linear-gradient-3);}.cls-5{fill:url(#linear-gradient-4);}.cls-6{fill:url(#linear-gradient-5);}.cls-7{fill:url(#linear-gradient-6);}.cls-8{fill:url(#New_Gradient_Swatch_copy_13);}.cls-9{fill:url(#New_Gradient_Swatch_copy_13-2);}</style><linearGradient id="linear-gradient" x1="8.46" y1="37.46" x2="15.54" y2="37.46" gradientUnits="userSpaceOnUse"><stop offset="0" stop-color="#90c746"/><stop offset="1" stop-color="#3eb44a"/></linearGradient><linearGradient id="linear-gradient-2" x1="16.46" y1="47.38" x2="23.54" y2="47.38" xlink:href="#linear-gradient"/><linearGradient id="linear-gradient-3" x1="24.46" y1="33.04" x2="31.54" y2="33.04" xlink:href="#linear-gradient"/><linearGradient id="linear-gradient-4" x1="32.46" y1="17.87" x2="39.54" y2="17.87" xlink:href="#linear-gradient"/><linearGradient id="linear-gradient-5" x1="40.46" y1="23.71" x2="47.54" y2="23.71" xlink:href="#linear-gradient"/><linearGradient id="linear-gradient-6" x1="48.46" y1="34.92" x2="55.54" y2="34.92" xlink:href="#linear-gradient"/><linearGradient id="New_Gradient_Swatch_copy_13" x1="3" y1="59.58" x2="61" y2="59.58" gradientUnits="userSpaceOnUse"><stop offset="0" stop-color="#eb4b49"/><stop offset="0.19" stop-color="#d8343c"/><stop offset="0.38" stop-color="#c1172c"/><stop offset="0.64" stop-color="#960c18"/><stop offset="0.86" stop-color="#770309"/><stop offset="0.99" stop-color="#6b0003"/></linearGradient><linearGradient id="New_Gradient_Swatch_copy_13-2" x1="6.88" y1="18.9" x2="57.75" y2="18.9" xlink:href="#New_Gradient_Swatch_copy_13"/></defs><g id="Layer_7" data-name="Layer 7"><path class="cls-1" d="M12,39.75a1,1,0,0,0-1,1v1.5a1,1,0,0,0,2,0v-1.5A1,1,0,0,0,12,39.75Z"/><path class="cls-1" d="M12,44.42a1,1,0,0,0-1,1v3.16a1,1,0,0,0,2,0V45.42A1,1,0,0,0,12,44.42Z"/><path class="cls-1" d="M12,50.75a1,1,0,0,0-1,1v3.17a1,1,0,0,0,2,0V51.75A1,1,0,0,0,12,50.75Z"/><path class="cls-1" d="M12,57.08a1,1,0,0,0-1,1v1.5a1,1,0,0,0,2,0v-1.5A1,1,0,0,0,12,57.08Z"/><path class="cls-1" d="M20,48.92a1,1,0,0,0-1,1v1.5a1,1,0,0,0,2,0v-1.5A1,1,0,0,0,20,48.92Z"/><path class="cls-1" d="M20,52.64a1,1,0,0,0-1,1v2.22a1,1,0,0,0,2,0V53.64A1,1,0,0,0,20,52.64Z"/><path class="cls-1" d="M20,57.08a1,1,0,0,0-1,1v1.5a1,1,0,0,0,2,0v-1.5A1,1,0,0,0,20,57.08Z"/><path class="cls-1" d="M28,34.58a1,1,0,0,0-1,1v1.5a1,1,0,0,0,2,0v-1.5A1,1,0,0,0,28,34.58Z"/><path class="cls-1" d="M28,39.08a1,1,0,0,0-1,1v3a1,1,0,0,0,2,0v-3A1,1,0,0,0,28,39.08Z"/><path class="cls-1" d="M28,45.08a1,1,0,0,0-1,1v3a1,1,0,0,0,2,0v-3A1,1,0,0,0,28,45.08Z"/><path class="cls-1" d="M28,51.08a1,1,0,0,0-1,1v3a1,1,0,0,0,2,0v-3A1,1,0,0,0,28,51.08Z"/><path class="cls-1" d="M28,57.08a1,1,0,0,0-1,1v1.5a1,1,0,0,0,2,0v-1.5A1,1,0,0,0,28,57.08Z"/><path class="cls-1" d="M36,19.42a1,1,0,0,0-1,1v1.5a1,1,0,0,0,2,0v-1.5A1,1,0,0,0,36,19.42Z"/><path class="cls-1" d="M36,40.39a1,1,0,0,0-1,1v2.78a1,1,0,0,0,2,0V41.39A1,1,0,0,0,36,40.39Z"/><path class="cls-1" d="M36,51.52a1,1,0,0,0-1,1V55.3a1,1,0,0,0,2,0V52.52A1,1,0,0,0,36,51.52Z"/><path class="cls-1" d="M36,46a1,1,0,0,0-1,1v2.78a1,1,0,1,0,2,0V47A1,1,0,0,0,36,46Z"/><path class="cls-1" d="M36,34.83a1,1,0,0,0-1,1v2.78a1,1,0,0,0,2,0V35.83A1,1,0,0,0,36,34.83Z"/><path class="cls-1" d="M36,23.7a1,1,0,0,0-1,1v2.78a1,1,0,1,0,2,0V24.7A1,1,0,0,0,36,23.7Z"/><path class="cls-1" d="M36,29.26a1,1,0,0,0-1,1V33a1,1,0,0,0,2,0V30.26A1,1,0,0,0,36,29.26Z"/><path class="cls-1" d="M36,57.08a1,1,0,0,0-1,1v1.5a1,1,0,0,0,2,0v-1.5A1,1,0,0,0,36,57.08Z"/><path class="cls-1" d="M44,25.25a1,1,0,0,0-1,1v1.5a1,1,0,0,0,2,0v-1.5A1,1,0,0,0,44,25.25Z"/><path class="cls-1" d="M44,35a1,1,0,0,0-1,1v2.76a1,1,0,0,0,2,0V36A1,1,0,0,0,44,35Z"/><path class="cls-1" d="M44,40.54a1,1,0,0,0-1,1V44.3a1,1,0,0,0,2,0V41.54A1,1,0,0,0,44,40.54Z"/><path class="cls-1" d="M44,29.51a1,1,0,0,0-1,1v2.76a1,1,0,1,0,2,0V30.51A1,1,0,0,0,44,29.51Z"/><path class="cls-1" d="M44,51.57a1,1,0,0,0-1,1v2.76a1,1,0,0,0,2,0V52.57A1,1,0,0,0,44,51.57Z"/><path class="cls-1" d="M44,46.05a1,1,0,0,0-1,1v2.76a1,1,0,0,0,2,0V47.05A1,1,0,0,0,44,46.05Z"/><path class="cls-1" d="M44,57.08a1,1,0,0,0-1,1v1.5a1,1,0,0,0,2,0v-1.5A1,1,0,0,0,44,57.08Z"/><path class="cls-1" d="M52,36.58a1,1,0,0,0-1,1v1.5a1,1,0,0,0,2,0v-1.5A1,1,0,0,0,52,36.58Z"/><path class="cls-1" d="M52,40.8a1,1,0,0,0-1,1v2.71a1,1,0,0,0,2,0V41.8A1,1,0,0,0,52,40.8Z"/><path class="cls-1" d="M52,46.23a1,1,0,0,0-1,1v2.71a1,1,0,0,0,2,0V47.23A1,1,0,0,0,52,46.23Z"/><path class="cls-1" d="M52,51.65a1,1,0,0,0-1,1v2.72a1,1,0,1,0,2,0V52.65A1,1,0,0,0,52,51.65Z"/><path class="cls-1" d="M52,57.08a1,1,0,0,0-1,1v1.5a1,1,0,0,0,2,0v-1.5A1,1,0,0,0,52,57.08Z"/><path class="cls-2" d="M12,33.92a3.54,3.54,0,1,0,3.54,3.54A3.55,3.55,0,0,0,12,33.92Z"/><path class="cls-3" d="M20,43.83a3.55,3.55,0,1,0,3.54,3.55A3.55,3.55,0,0,0,20,43.83Z"/><circle class="cls-4" cx="28" cy="33.04" r="3.54"/><path class="cls-5" d="M36,14.33a3.55,3.55,0,1,0,3.54,3.55A3.55,3.55,0,0,0,36,14.33Z"/><circle class="cls-6" cx="44" cy="23.71" r="3.54"/><circle class="cls-7" cx="52" cy="34.92" r="3.54"/><path class="cls-8" d="M60,58.58H4a1,1,0,0,0,0,2H60a1,1,0,0,0,0-2Z"/><path class="cls-9" d="M17.61,31.18a1,1,0,0,0,.77.36h0a1,1,0,0,0,.77-.41L35.5,8.77l20.55,20a1,1,0,0,0,1.4-1.44L36.07,6.53a1,1,0,0,0-1.5.13L18.33,28.91,8.64,17.24a1,1,0,1,0-1.53,1.27Z"/></g></svg>