<?xml version="1.0" encoding="UTF-8" standalone="no"?>
<svg
   xmlns:dc="http://purl.org/dc/elements/1.1/"
   xmlns:cc="http://creativecommons.org/ns#"
   xmlns:rdf="http://www.w3.org/1999/02/22-rdf-syntax-ns#"
   xmlns:svg="http://www.w3.org/2000/svg"
   xmlns="http://www.w3.org/2000/svg"
   xml:space="preserve"
   width="645.12"
   height="645.12"
   style="clip-rule:evenodd;fill-rule:evenodd;image-rendering:optimizeQuality;shape-rendering:geometricPrecision;text-rendering:geometricPrecision"
   viewBox="0 0 6720 6720"
   version="1.1"
   id="svg22"><metadata
   id="metadata26"><rdf:RDF><cc:Work
       rdf:about=""><dc:format>image/svg+xml</dc:format><dc:type
         rdf:resource="http://purl.org/dc/dcmitype/StillImage" /><dc:title></dc:title></cc:Work></rdf:RDF></metadata>
 <defs
   id="defs4">
  <style
   type="text/css"
   id="style2">
   <![CDATA[
    .fil1 {fill:none}
    .fil0 {fill:black;fill-rule:nonzero}
   ]]>
  </style>
 </defs>
 
 <g
   id="g45"><g
     id="g33"
     transform="matrix(21.333333,0,0,21.333333,-68320.001,-68320.001)"><g
       id="Layer_x0020_1"
       transform="matrix(0.01860119,0,0,0.01860119,3297.5,3297.5)">
  <metadata
   id="CorelCorpID_0Corel-Layer" />
  <path
   class="fil0"
   d="m 1752,3846 c 0,-45 -37,-82 -82,-82 -45,0 -82,37 -82,82 v 1732 c 0,45 37,82 82,82 45,0 82,-37 82,-82 z"
   id="path7" />
  <path
   class="fil0"
   d="m 2876,3758 c 0,-45 -37,-82 -82,-82 -45,0 -82,37 -82,82 v 1819 c 0,45 37,82 82,82 45,0 82,-37 82,-82 z"
   id="path9" />
  <path
   class="fil0"
   d="m 4001,3433 c 0,-45 -37,-82 -82,-82 -45,0 -82,37 -82,82 v 2145 c 0,45 37,82 82,82 45,0 82,-37 82,-82 z"
   id="path11" />
  <path
   class="fil0"
   d="m 5125,2841 c 0,-45 -37,-82 -82,-82 -45,0 -82,37 -82,82 v 2737 c 0,45 37,82 82,82 45,0 82,-37 82,-82 z"
   id="path13" />
  <path
   class="fil0"
   d="m 885,3466 c -45,-2 -83,33 -85,78 -2,45 33,83 78,85 8,0 2803,157 5016,-2426 29,-34 25,-86 -9,-115 -34,-29 -86,-25 -115,9 C 3610,3618 893,3466 885,3466 Z"
   id="path15" />
  <path
   class="fil0"
   d="m 4399,1061 c -45,0 -82,36 -82,82 0,45 36,82 82,82 h 1358 v 1358 c 0,45 36,82 82,82 45,0 82,-36 82,-82 0,-480 0,-960 0,-1439 0,-45 -37,-82 -82,-82 H 4400 Z"
   id="path17" />
 </g><rect
       class="fil1"
       width="125"
       height="125"
       id="rect20"
       x="3297.5"
       y="3297.5"
       style="stroke-width:0.0186012" /></g></g>
</svg>
