<?xml version="1.0" encoding="UTF-8"?>
<svg xmlns="http://www.w3.org/2000/svg" xmlns:xlink="http://www.w3.org/1999/xlink" width="16pt" height="16pt" viewBox="0 0 16 16" version="1.1">
<g id="surface1">
<path style=" stroke:none;fill-rule:nonzero;fill:rgb(20.784314%,20.784314%,23.921569%);fill-opacity:1;" d="M 15.332031 14.667969 L 1.75 14.667969 L 4.226562 9.71875 L 7.574219 12.511719 C 7.722656 12.636719 7.917969 12.691406 8.113281 12.65625 C 8.304688 12.625 8.472656 12.511719 8.574219 12.34375 L 12.5 5.808594 L 12.828125 6.832031 C 12.914062 7.109375 13.171875 7.296875 13.460938 7.296875 C 13.53125 7.296875 13.601562 7.285156 13.664062 7.265625 C 14.015625 7.152344 14.207031 6.777344 14.097656 6.425781 L 13.25 3.835938 C 13.195312 3.667969 13.078125 3.527344 12.921875 3.445312 C 12.765625 3.363281 12.582031 3.347656 12.414062 3.402344 L 9.882812 4.210938 C 9.550781 4.335938 9.375 4.699219 9.484375 5.035156 C 9.589844 5.375 9.945312 5.570312 10.289062 5.480469 L 11.335938 5.148438 L 7.828125 11 L 4.425781 8.15625 C 4.269531 8.023438 4.0625 7.972656 3.863281 8.015625 C 3.664062 8.054688 3.496094 8.1875 3.402344 8.367188 L 1.332031 12.5 L 1.332031 0.667969 C 1.347656 0.417969 1.222656 0.183594 1.011719 0.0546875 C 0.800781 -0.0742188 0.53125 -0.0742188 0.320312 0.0546875 C 0.109375 0.183594 -0.015625 0.417969 0 0.667969 L 0 15.332031 C 0.00390625 15.363281 0.0117188 15.394531 0.015625 15.425781 C 0.0234375 15.472656 0.03125 15.519531 0.046875 15.566406 C 0.0664062 15.605469 0.0859375 15.644531 0.109375 15.675781 C 0.128906 15.714844 0.152344 15.75 0.179688 15.78125 C 0.214844 15.816406 0.25 15.84375 0.292969 15.871094 C 0.316406 15.890625 0.339844 15.914062 0.367188 15.929688 L 0.394531 15.929688 L 0.433594 15.941406 C 0.507812 15.972656 0.585938 15.988281 0.664062 15.988281 L 15.332031 15.988281 C 15.582031 16.003906 15.816406 15.882812 15.945312 15.667969 C 16.074219 15.457031 16.074219 15.191406 15.945312 14.976562 C 15.816406 14.765625 15.582031 14.640625 15.332031 14.65625 Z M 15.332031 14.667969 "/>
</g>
</svg>
