<?xml version="1.0" encoding="UTF-8" standalone="no"?>
<svg
   xmlns:dc="http://purl.org/dc/elements/1.1/"
   xmlns:cc="http://creativecommons.org/ns#"
   xmlns:rdf="http://www.w3.org/1999/02/22-rdf-syntax-ns#"
   xmlns:svg="http://www.w3.org/2000/svg"
   xmlns="http://www.w3.org/2000/svg"
   xmlns:sodipodi="http://sodipodi.sourceforge.net/DTD/sodipodi-0.dtd"
   xmlns:inkscape="http://www.inkscape.org/namespaces/inkscape"
   version="1.1"
   id="Capa_1"
   x="0px"
   y="0px"
   viewBox="0 0 512 512"
   style="enable-background:new 0 0 512 512;"
   xml:space="preserve"
   sodipodi:docname="euro-off.svg"
   inkscape:version="1.0.2-2 (e86c870879, 2021-01-15)"><metadata
   id="metadata1002"><rdf:RDF><cc:Work
       rdf:about=""><dc:format>image/svg+xml</dc:format><dc:type
         rdf:resource="http://purl.org/dc/dcmitype/StillImage" /><dc:title></dc:title></cc:Work></rdf:RDF></metadata><defs
   id="defs1000" /><sodipodi:namedview
   pagecolor="#ffffff"
   bordercolor="#666666"
   borderopacity="1"
   objecttolerance="10"
   gridtolerance="10"
   guidetolerance="10"
   inkscape:pageopacity="0"
   inkscape:pageshadow="2"
   inkscape:window-width="1920"
   inkscape:window-height="1057"
   id="namedview998"
   showgrid="false"
   inkscape:zoom="1.7382812"
   inkscape:cx="256"
   inkscape:cy="256"
   inkscape:window-x="-8"
   inkscape:window-y="-8"
   inkscape:window-maximized="1"
   inkscape:current-layer="Capa_1" />
<circle
   style="fill:#2196F3;"
   cx="256"
   cy="256"
   r="256"
   id="circle963" />
<path
   style="fill:#FAFAFA;"
   d="M311.008,339.744C299.072,347.872,285.952,352,272,352c-29.472,0-55.008-19.456-68.864-48H256  c8.832,0,16-7.168,16-16s-7.168-16-16-16h-62.656c-0.736-5.216-1.344-10.528-1.344-16s0.608-10.784,1.344-16H272  c8.832,0,16-7.168,16-16s-7.168-16-16-16h-68.864c13.856-28.544,39.392-48,68.864-48c13.952,0,27.072,4.128,39.008,12.256  c7.264,4.96,17.248,3.168,22.208-4.192c4.96-7.296,3.104-17.248-4.224-22.24C311.904,134.176,292.192,128,272,128  c-46.88,0-87.008,33.184-103.68,80H144c-8.832,0-16,7.168-16,16s7.168,16,16,16h17.408c-0.576,5.312-1.408,10.528-1.408,16  c0,5.472,0.832,10.688,1.408,16H144c-8.832,0-16,7.168-16,16s7.168,16,16,16h24.32c16.672,46.816,56.8,80,103.68,80  c20.192,0,39.904-6.176,56.992-17.824c7.328-4.992,9.184-14.944,4.224-22.24S318.24,334.816,311.008,339.744z"
   id="path965" />
<g
   id="g967">
</g>
<g
   id="g969">
</g>
<g
   id="g971">
</g>
<g
   id="g973">
</g>
<g
   id="g975">
</g>
<g
   id="g977">
</g>
<g
   id="g979">
</g>
<g
   id="g981">
</g>
<g
   id="g983">
</g>
<g
   id="g985">
</g>
<g
   id="g987">
</g>
<g
   id="g989">
</g>
<g
   id="g991">
</g>
<g
   id="g993">
</g>
<g
   id="g995">
</g>
<path
   style="fill:#800000;stroke-width:0.575281"
   d="m 237.59101,511.61357 c -25.1217,-1.79934 -53.32133,-8.35564 -77.37528,-17.98944 -21.31067,-8.5351 -44.76667,-22.08926 -62.130337,-35.90231 C 85.655506,447.83366 69.571153,432.50345 61.80795,423.14531 60.245038,421.2613 58.500349,419.2421 57.930861,418.65819 56.618392,417.3125 46.464052,403.59862 43.166511,398.71829 32.330833,382.68158 22.737149,363.50211 14.214372,340.83785 10.293399,330.41097 5.667985,312.15463 3.2141146,297.42022 c -4.52579,-27.17536 -4.31959,-59.67818 0.5460872,-86.07841 2.6696449,-14.48499 6.7590812,-30.18143 10.4723052,-40.19574 14.383999,-38.79268 31.774689,-66.62424 59.075803,-94.543213 9.278015,-9.487993 23.898693,-22.330071 30.23101,-26.553419 0.71161,-0.474607 2.36435,-1.654676 3.67276,-2.622377 15.10592,-11.172332 38.9957,-23.918052 58.18118,-31.040926 3.86854,-1.436251 12.36901,-4.297058 18.40899,-6.195492 7.65622,-2.4064378 21.49115,-5.5066154 32.50337,-7.2834618 24.4524,-3.9454513 54.84558,-3.9329827 79.6764,0.032687 41.53926,6.6341316 80.94589,23.3571648 114.19326,48.4603168 9.82168,7.41578 14.49156,11.42466 23.58652,20.247933 10.68898,10.369691 14.99732,15.186639 26.20446,29.297962 7.13482,8.98372 16.95855,24.61944 23.85449,37.96749 15.54052,30.08082 25.0755,63.89923 27.65956,98.10216 0.85752,11.35016 0.34643,38.46726 -0.91077,48.3236 -3.93137,30.82148 -11.69583,57.07311 -24.757,83.70337 -21.86213,44.57443 -55.52734,81.08077 -98.6485,106.9738 -33.18089,19.92418 -72.5915,32.48737 -111.02921,35.39352 -7.02359,0.53103 -32.12115,0.66357 -38.54382,0.20355 z m 44.887,-127.9152 c 11.9784,-1.44796 22.92483,-4.5849 33.06356,-9.47509 7.00613,-3.37925 14.12765,-7.87597 16.50849,-10.42391 5.72693,-6.12888 5.25166,-16.85601 -1.00223,-22.62065 -3.45464,-3.18437 -6.10944,-4.22205 -10.93758,-4.27514 -4.42805,-0.0487 -5.27984,0.28331 -14.34845,5.59255 -5.08174,2.97512 -11.48558,5.60423 -18.10363,7.43248 -3.65982,1.01104 -6.02904,1.2017 -15.26266,1.22828 -11.98626,0.0345 -15.22666,-0.51571 -24.7894,-4.20907 -16.59276,-6.40851 -31.75278,-20.5248 -42.22337,-39.31636 l -1.84313,-3.30786 h 27.27634 c 30.84056,0 31.15641,-0.0362 35.76677,-4.09436 3.53649,-3.11294 5.0552,-6.18943 5.39549,-10.92981 0.5125,-7.13907 -2.66865,-12.77964 -8.94583,-15.86212 l -3.29305,-1.61709 -33.17266,-0.16577 -33.17266,-0.16578 -0.48128,-5.01175 c -0.61385,-6.39245 -0.61373,-14.56255 3.3e-4,-20.95769 l 0.48159,-5.01561 41.22627,-0.16192 41.22627,-0.16192 3.28146,-1.61142 c 5.32053,-2.61273 8.46011,-7.31209 8.9483,-13.39391 0.41279,-5.14246 -1.00001,-8.93672 -4.69517,-12.60952 -5.0714,-5.04072 -3.68686,-4.88853 -44.47354,-4.88853 h -35.36863 l 1.84313,-3.30786 c 11.3406,-20.35297 27.25079,-34.3968 46.03832,-40.63773 8.14873,-2.70688 13.89721,-3.44871 23.77996,-3.06877 11.53272,0.44338 20.79067,3.12188 30.56078,8.84183 9.08825,5.32074 9.99037,5.6734 14.38193,5.6223 4.82623,-0.0562 7.37766,-1.05433 10.83052,-4.23707 6.329,-5.83387 6.83588,-16.52412 1.07581,-22.68847 -2.38882,-2.55648 -9.51662,-7.05264 -16.50849,-10.41342 -28.96666,-13.9234 -62.20078,-13.26576 -90.59696,1.79276 -24.08863,12.77423 -44.17043,35.87646 -54.9428,63.20655 l -1.81401,4.60224 -14.34109,0.28764 c -14.21341,0.28508 -14.36731,0.30148 -17.28638,1.84139 -3.20497,1.69072 -5.33012,3.90349 -7.28349,7.58375 -0.98665,1.85891 -1.25906,3.35773 -1.26688,6.97037 -0.009,4.03052 0.20079,4.9827 1.68652,7.66478 0.93307,1.6844 2.65765,3.8238 3.83241,4.75422 4.14355,3.28176 5.647,3.62274 17.03635,3.86382 l 10.48435,0.22193 -0.41693,3.54088 c -0.538,4.56915 -0.538,19.19577 0,23.76492 l 0.41693,3.54088 -10.48435,0.22193 c -11.38935,0.24108 -12.8928,0.58206 -17.03635,3.86382 -1.17476,0.93042 -2.89934,3.06982 -3.83241,4.75422 -1.48573,2.68208 -1.69524,3.63426 -1.68652,7.66478 0.008,3.61264 0.28023,5.11146 1.26688,6.97037 1.92531,3.62739 3.80363,5.57842 7.16097,7.43814 l 3.06781,1.69936 14.32094,0.28764 14.32094,0.28764 2.12434,5.17752 c 8.11875,19.78743 20.3271,36.97576 34.90572,49.14431 17.58973,14.68186 35.42926,22.36403 58.01345,24.98211 3.92182,0.45464 14.73825,0.33305 19.287,-0.21681 z"
   id="path1004" /></svg>
