<svg height="477pt" viewBox="-32 0 477 477.97504" width="477pt" xmlns="http://www.w3.org/2000/svg"><path d="m350.816406 286.980469 7.191406-.402344 12.179688 24.113281 24.101562 12.179688-1.492187 27.089844 14.910156 22.609374-14.910156 22.621094 1.492187 27.078125-24.101562 12.179688-12.179688 24.109375-27.089843-1.488282-22.609375 14.910157-22.621094-14.910157-27.089844 1.488282-12.167968-24.109375-24.113282-12.179688 1.492188-27.078125-14.910156-22.621094 14.910156-22.609374-1.492188-27.089844 17.03125-8.609375 7.082032-3.570313 12.167968-24.113281 17.660156.980469 9.429688.519531 22.621094-14.90625 5.609375 3.699219 17 11.207031zm4.703125 116.648437c-.003906-10.289062-8.351562-18.632812-18.640625-18.628906-10.292968.003906-18.632812 8.347656-18.632812 18.640625.003906 10.292969 8.351562 18.632813 18.640625 18.628906 10.292969 0 18.636719-8.347656 18.632812-18.640625zm-59.640625-59.640625c0-10.292969-8.347656-18.636719-18.640625-18.636719s-18.640625 8.34375-18.640625 18.636719c0 10.296875 8.347656 18.640625 18.640625 18.640625s18.640625-8.34375 18.640625-18.640625zm0 0" fill="#00efd1"/><path d="m350.816406 126.558594v160.421875l-19.898437 1.097656-17-11.207031v-150.3125zm0 0" fill="#00acea"/><path d="m336.886719 385c10.292969.003906 18.632812 8.347656 18.632812 18.640625-.003906 10.292969-8.351562 18.632813-18.640625 18.628906-10.292968-.003906-18.632812-8.347656-18.632812-18.640625 0-10.292968 8.347656-18.636718 18.640625-18.628906zm0 0" fill="#fedb41"/><path d="m295.878906 343.988281c0 10.296875-8.347656 18.640625-18.640625 18.640625s-18.640625-8.34375-18.640625-18.640625c0-10.292969 8.347656-18.636719 18.640625-18.636719s18.640625 8.34375 18.640625 18.636719zm0 0" fill="#fedb41"/><path d="m276.257812 176.269531v111.289063l-17.660156-.980469-12.167968 24.113281-7.082032 3.570313v-137.992188zm0 0" fill="#00acea"/><path d="m164.789062 230.949219h36.898438v172.152343h-36.898438zm0 0" fill="#00acea"/><path d="m89.636719 253.078125h36.910156v150.023437h-36.910156zm0 0" fill="#00acea"/><path d="m14.496094 335.03125h36.902344v68.070312h-36.902344zm0 0" fill="#00acea"/><g fill="#083863"><path d="m133.097656 253c0-3.3125-2.6875-6-6-6h-37c-3.3125 0-6 2.6875-6 6v150c0 3.3125 2.6875 6 6 6h37c3.3125 0 6-2.6875 6-6zm-13 144h-24v-138h24zm0 0"/><path d="m57.097656 335c0-3.3125-2.6875-6-6-6h-37c-3.3125 0-6 2.6875-6 6v68c0 3.3125 2.6875 6 6 6h37c3.3125 0 6-2.6875 6-6zm-12 62h-25v-56h25zm0 0"/><path d="m189.648438 97.945312 38.625 38.628907c2.34375 2.34375 6.144531 2.34375 8.488281 0l116.042969-116.042969-.085938 50.609375c0 1.574219.636719 3.085937 1.765625 4.1875 1.125 1.101563 2.648437 1.703125 4.222656 1.671875h.011719c1.574219.035156 3.09375-.566406 4.222656-1.664062 1.128906-1.097657 1.769532-2.601563 1.777344-4.175782l.109375-65.199218c0-1.585938-.632813-3.101563-1.757813-4.214844-1.128906-1.125-2.660156-1.75000025-4.253906-1.746094l-65.277344.121094c-3.316406.003906-6 2.695312-5.996093 6.011718.007812 3.316407 2.699219 6 6.015625 5.996094l50.757812-.085937-111.796875 111.800781-38.628906-38.628906c-2.34375-2.34375-6.140625-2.34375-8.484375 0l-183.160156 183.164062c-2.3437502 2.339844-2.3437502 6.140625 0 8.484375 2.34375 2.34375 6.140625 2.34375 8.484375 0zm0 0"/><path d="m398.898438 348.3125 1.378906-25.113281c.132812-2.378907-1.15625-4.609375-3.285156-5.683594l-22.339844-11.289063-11.289063-22.351562c-1.011719-2.117188-3.203125-3.417969-5.546875-3.285156l-.71875.046875v-154.078125c0-3.3125-2.964844-5.558594-6.28125-5.558594h-36.898437c-1.523438-.09375-3.019531.453125-4.125 1.507812-1.101563 1.058594-1.71875 2.523438-1.695313 4.050782v140.640625c-1.0625.066406-2.097656.394531-3 .960937l-21.089844 13.820313-1.90625-.097657v-105.613281c.09375-3.335937-2.507812-6.128906-5.839843-6.269531h-36.914063c-3.414062.105469-6.152344 2.855469-6.25 6.269531v134.300781l-13.613281 6.941407c-2.109375 1.082031-3.375 3.316406-3.21875 5.683593l1.617187 25.109376-9.785156 15.203124v-132.558593c0-3.3125-3.101562-5.949219-6.410156-5.949219h-36.898438c-1.554687 0-3.042968.636719-4.117187 1.761719-1.074219 1.121093-1.640625 2.636719-1.574219 4.1875v172.152343c-.066406 1.546876.503906 3.054688 1.582032 4.167969 1.074218 1.117188 2.558593 1.742188 4.109374 1.730469h36.898438c3.316406 0 6.410156-2.585938 6.410156-5.898438v-21.464843l9.816406 15.199219-1.484374 25.101562c-.152344 2.367188 1.121093 4.601562 3.234374 5.683594l22.324219 11.289062 11.265625 22.351563c1.070313 2.128906 3.300782 3.417969 5.679688 3.285156l25.109375-1.382813 20.964843 13.820313c2 1.320313 4.597657 1.320313 6.597657 0l20.957031-13.816406 25.113281 1.378906c2.378907.136719 4.613281-1.15625 5.683594-3.285156l11.289063-22.347657 22.339843-11.292968c2.128907-1.074219 3.417969-3.304688 3.285157-5.683594l-1.378907-25.101562 13.820313-20.964844c1.320312-2.003906 1.320312-4.601563 0-6.605469zm-202.800782 48.6875h-25v-160h25zm149-264v148.300781l-12.300781.679688-12.699219-8.339844v-140.640625zm-75 49v99.21875l-11.246094-.628906c-2.40625-.136719-4.664062 1.148437-5.773437 3.285156l-7.980469 15.640625v-117.515625zm117.691406 209.886719c-.707031 1.074219-1.054687 2.347656-.980468 3.632812l1.273437 23.164063-20.601562 10.410156c-1.140625.578125-2.070313 1.507812-2.648438 2.652344l-10.410156 20.609375-23.175781-1.277344c-1.28125-.070313-2.558594.273437-3.632813.984375l-19.304687 12.730469-19.320313-12.734375c-.976562-.644532-2.125-.988282-3.296875-.988282-.113281 0-.222656.003907-.332031.007813l-23.171875 1.277344-10.398438-20.609375c-.578124-1.144532-1.507812-2.074219-2.652343-2.652344l-20.609375-10.410156 1.269531-23.164063c.070313-1.285156-.273437-2.558593-.980469-3.632812l-12.730468-19.316407 12.730468-19.308593c.707032-1.074219 1.050782-2.347657.980469-3.632813l-1.273437-23.171875 20.605468-10.410156c1.144532-.578125 2.074219-1.507813 2.652344-2.652344l10.402344-20.382812 13.742187.988281 9.429688.300781c1.292969.03125 2.566406-.351562 3.628906-1.09375l19.320313-12.789062 19.304687 12.699219c1.078125.703124 2.351563 1.042968 3.636719.96875l23.171875-1.289063 10.410156 20.601563c.578125 1.140624 1.507813 2.070312 2.648437 2.648437l20.601563 10.40625-1.273437 23.175781c-.070313 1.285156.273437 2.558594.980468 3.632813l12.730469 19.308593zm0 0"/><path d="m277.238281 368.628906c13.609375 0 24.640625-11.03125 24.640625-24.640625 0-13.605469-11.03125-24.636719-24.640625-24.636719s-24.640625 11.03125-24.640625 24.636719c.015625 13.605469 11.039063 24.625 24.640625 24.640625zm0-37.277344c6.980469 0 12.640625 5.65625 12.640625 12.636719 0 6.984375-5.660156 12.640625-12.640625 12.640625s-12.640625-5.65625-12.640625-12.640625c.007813-6.976562 5.664063-12.628906 12.640625-12.636719zm0 0"/><path d="m336.886719 379c-13.605469-.003906-24.636719 11.027344-24.640625 24.632812 0 13.605469 11.03125 24.636719 24.636718 24.636719 13.609376 0 24.636719-11.03125 24.636719-24.640625-.019531-13.59375-11.035156-24.609375-24.632812-24.628906zm0 37.269531c-6.976563.003907-12.636719-5.652343-12.640625-12.628906 0-6.980469 5.652344-12.636719 12.632812-12.640625 6.976563-.003906 12.636719 5.652344 12.640625 12.628906-.007812 6.976563-5.65625 12.628906-12.632812 12.640625zm0 0"/><path d="m355.039062 325.828125c-2.34375-2.34375-6.140624-2.34375-8.484374 0l-84.988282 85c-1.539062 1.511719-2.144531 3.730469-1.59375 5.8125.554688 2.085937 2.179688 3.710937 4.265625 4.261719 2.082031.554687 4.300781-.054688 5.8125-1.589844l84.992188-85c2.339843-2.34375 2.339843-6.144531-.003907-8.484375zm0 0"/></g></svg>